<svg xmlns="http://www.w3.org/2000/svg" xml:space="preserve" width="32" height="32" viewBox="0 0 24 24"><path d="M13.001 18a.75.75 0 0 1-.738-.89l2-10.5a.75.75 0 1 1 1.473.28l-2 10.5a.749.749 0 0 1-.735.61zM9.001 18a.75.75 0 0 1-.738-.89l2-10.5a.75.75 0 1 1 1.473.28l-2 10.5a.749.749 0 0 1-.735.61z"/><path d="M17.25 15H6.75a.75.75 0 0 1 0-1.5h10.5a.75.75 0 0 1 0 1.5zM17.25 10.5H6.75a.75.75 0 0 1 0-1.5h10.5a.75.75 0 0 1 0 1.5z"/><path d="M21.25 24H2.75A2.752 2.752 0 0 1 0 21.25V2.75A2.752 2.752 0 0 1 2.75 0h18.5A2.752 2.752 0 0 1 24 2.75v18.5A2.752 2.752 0 0 1 21.25 24zM2.75 1.5c-.689 0-1.25.561-1.25 1.25v18.5c0 .689.561 1.25 1.25 1.25h18.5c.689 0 1.25-.561 1.25-1.25V2.75c0-.689-.561-1.25-1.25-1.25H2.75z"/></svg>